<svg xmlns="http://www.w3.org/2000/svg" height="800" width="1200" viewBox="-149.85 -33.418 1298.7 200.508"><path d="M15.726 66.836c0 30.273 21.623 52.682 49.93 52.682 26.342 0 39.709-16.512 43.64-24.375h14.94c-3.931 12.58-21.623 38.529-58.58 38.529C28.307 133.672 0 105.365 0 66.836 0 28.7 28.7 0 65.656 0c36.957 0 55.042 25.555 58.973 38.529h-15.333c-4.717-8.256-17.692-24.769-43.64-24.769-28.307 0-49.93 22.41-49.93 53.076zM203.26 91.998h-54.255l-14.94 38.922h-14.94l49.93-128.954h14.547l49.93 129.347H218.2zm-5.111-12.974L176.132 21.23l-22.016 57.794zm107.723 52.289h-64.476V1.966h15.332v115.193h49.538zm42.068 0h-14.154L285.43 1.966h16.119l39.315 108.51 39.315-108.51h15.333zm72.34 0h-14.94V1.966h14.94zm35.777-104.185v104.185h-14.154V1.966h14.154l71.947 104.578V1.966h14.153v129.347h-12.974zm174.559 44.819l-16.512 18.478v40.888h-14.94V1.966h14.94v68.801l60.545-68.801h18.085l-51.896 58.186 51.896 70.768h-17.298zm135.244 59.366h-64.476V1.966h15.333v115.193h49.537v14.154zm9.436-129.347h68.802v13.76h-53.862V58.58h52.29v13.76h-52.29v44.82h53.862v13.76h-68.802zm102.22 129.347h-14.94V1.966h14.94zM912.9 27.128v104.185h-14.154V1.966H912.9l71.947 104.578V1.966H999v129.347h-12.974z"/></svg>